<?xml version="1.0" encoding="UTF-8"?>
<svg version="1.1" xmlns="http://www.w3.org/2000/svg" width="150" height="150">
<path d="M0 0 C49.5 0 99 0 150 0 C150 49.5 150 99 150 150 C100.5 150 51 150 0 150 C0 100.5 0 51 0 0 Z " fill="#FCFCFC" transform="translate(0,0)"/>
<path d="M0 0 C2.51634037 1.88297579 4.72133358 3.82490933 7 6 C5.60652624 9.15204981 3.97514921 11.26171773 1.5234375 13.671875 C0.853125 14.33574219 0.1828125 14.99960937 -0.5078125 15.68359375 C-1.20648438 16.36550781 -1.90515625 17.04742187 -2.625 17.75 C-3.33140625 18.44738281 -4.0378125 19.14476563 -4.765625 19.86328125 C-6.50598703 21.58012488 -8.25084981 23.29211832 -10 25 C-10.92941406 24.51789062 -11.85882813 24.03578125 -12.81640625 23.5390625 C-14.06493755 22.90071567 -15.31364495 22.26271322 -16.5625 21.625 C-17.17158203 21.30789062 -17.78066406 20.99078125 -18.40820312 20.6640625 C-26.93216079 16.33443321 -35.39648804 14.39914862 -44.8359375 16.6875 C-55.2317082 20.18187671 -63.20257888 25.57354384 -69 35 C-74.11038948 45.71783813 -75.95957037 56.0467147 -72.05078125 67.55078125 C-70.14666985 71.98898885 -67.67518894 75.99080264 -65 80 C-64.4225 80.9075 -63.845 81.815 -63.25 82.75 C-59.69546409 86.30453591 -55.43238689 88.67111875 -51 91 C-50.2884375 91.37769531 -49.576875 91.75539063 -48.84375 92.14453125 C-39.30660562 95.01353485 -26.10996374 94.73596266 -17.0625 90.5 C-7.62928014 84.67719234 -4.9121655 78.75845511 -1 68 C-12.55 68 -24.1 68 -36 68 C-36 59.75 -36 51.5 -36 43 C-15.54 43 4.92 43 26 43 C26.95814922 47.79074612 27.18350241 51.97142243 27.1875 56.8125 C27.19974609 57.58142578 27.21199219 58.35035156 27.22460938 59.14257812 C27.2380318 64.44443586 26.4724593 68.90423906 25 74 C24.72800781 74.98484375 24.45601563 75.9696875 24.17578125 76.984375 C19.40152744 92.27926956 10.7915071 104.8772402 -3.43359375 112.7578125 C-7.84815939 114.8945429 -12.30719547 116.58124514 -17 118 C-18.11375 118.3403125 -18.11375 118.3403125 -19.25 118.6875 C-36.56038303 123.01509576 -54.19248934 120.0150279 -69.44921875 111.234375 C-85.46200163 101.4945092 -95.58873727 85.4964179 -100.3125 67.64453125 C-103.72720269 49.54272665 -99.18048837 31.85993303 -89.0625 16.7265625 C-78.90308231 3.29612017 -66.26842894 -4.95005355 -50 -9 C-49.36562012 -9.1743457 -48.73124023 -9.34869141 -48.07763672 -9.52832031 C-31.8759902 -13.20653195 -13.83799002 -8.451946 0 0 Z " fill="#030303" transform="translate(112,22)"/>
<path d="M0 0 C0.66 0.33 1.32 0.66 2 1 C-1.63 4.63 -5.26 8.26 -9 12 C-9.66 11.67 -10.32 11.34 -11 11 C-9.92173635 9.72486237 -8.83714481 8.45507431 -7.75 7.1875 C-7.14671875 6.47980469 -6.5434375 5.77210937 -5.921875 5.04296875 C-4.07629602 3.08110329 -2.20054668 1.54330375 0 0 Z " fill="#D2D2D2" transform="translate(55,43)"/>
</svg>
